<svg xmlns="http://www.w3.org/2000/svg" width="27" height="19" viewBox="0 0 27 19" fill="none">
    <path d="M17.6986 18.5756C15.9243 18.5759 14.1899 18.05 12.7145 17.0645C11.2391 16.0791 10.0891 14.6782 9.4099 13.0391C8.7307 11.4001 8.5528 9.59638 8.8987 7.85618C9.2446 6.11598 10.0987 4.51738 11.3531 3.26267C12.6075 2.00791 14.2058 1.1533 15.9458 0.806908C17.6859 0.460518 19.4897 0.637898 21.1289 1.31662C22.7682 1.99535 24.1694 3.14493 25.1553 4.61998C26.1413 6.09508 26.6676 7.82938 26.6679 9.60358V9.60498C26.6654 11.9831 25.7197 14.2632 24.0382 15.945C22.3567 17.6267 20.0768 18.5728 17.6986 18.5756Z" fill="#FFBA46"/>
    <path d="M8.97066 18.5756C7.19645 18.5756 5.46206 18.0495 3.98684 17.0638C2.51162 16.0781 1.36183 14.6771 0.682856 13.0379C0.00388616 11.3987 -0.173764 9.59498 0.172376 7.85488C0.518506 6.11468 1.37289 4.51628 2.62746 3.26173C3.88203 2.00716 5.48045 1.15278 7.22059 0.806653C8.96076 0.460513 10.7645 0.638163 12.4036 1.31713C14.0428 1.9961 15.4438 3.14589 16.4296 4.62108C17.4153 6.09638 17.9414 7.83068 17.9414 9.60498C17.9389 11.9834 16.993 14.2637 15.3112 15.9455C13.6294 17.6272 11.3491 18.5732 8.97066 18.5756Z" fill="#E50B18"/>
</svg>