<svg width="735" height="237" viewBox="0 0 735 237" fill="none" xmlns="http://www.w3.org/2000/svg">
    <path d="M420.996 40.9142C416.992 37.5536 410.499 37.5536 406.494 40.9142H385.506L400.347 28.4588C406.01 28.4588 410.601 24.6054 410.601 19.8521C410.601 15.0989 406.01 11.2451 400.347 11.2451C394.683 11.2451 390.092 15.0989 390.092 19.8521L375.251 32.308V14.6926C379.256 11.3315 379.256 5.88217 375.251 2.52111C371.246 -0.84037 364.753 -0.84037 360.749 2.52111C356.744 5.88259 356.744 11.3319 360.749 14.6926V32.308L345.908 19.8517C345.908 15.0989 341.317 11.2455 335.654 11.2455C329.99 11.2455 325.399 15.0989 325.399 19.8517C325.399 24.6054 329.99 28.4588 335.653 28.4588L350.495 40.9142H329.506C325.501 37.5531 319.008 37.5536 315.003 40.9142C310.999 44.2757 310.999 49.725 315.003 53.0865C319.008 56.4472 325.501 56.4472 329.506 53.0865H350.494L335.654 65.5415C329.99 65.5415 325.399 69.3945 325.399 74.1478C325.399 78.9014 329.99 82.7548 335.653 82.7548C341.317 82.7548 345.908 78.9014 345.908 74.1482L360.749 61.6923V79.3073C356.744 82.6684 356.744 88.1181 360.749 91.4792C364.754 94.8403 371.247 94.8403 375.252 91.4792C379.256 88.1177 379.256 82.6684 375.252 79.3069V61.6923L390.092 74.1482C390.092 78.9014 394.683 82.7544 400.347 82.7544C406.01 82.7544 410.602 78.9014 410.602 74.1482C410.602 69.3945 406.01 65.5415 400.347 65.5415L385.506 53.0857H406.494C410.499 56.4472 416.992 56.4472 420.996 53.0857C425.001 49.7246 425.001 44.2753 420.996 40.9142Z" fill="#FFB13B"/>
    <path d="M13.94 156.268V167.584L18.45 168.814V169.634H2.46V168.814L7.38 167.584V114.284L2.46 113.054V112.234H13.94V154.054L27.47 134.784L22.14 132.734V131.914H34.44V132.734L29.11 134.784L21.156 146.1L34.03 167.584L38.95 168.814V169.634H22.14V168.814L26.65 167.584L17.138 151.758L13.94 156.268ZM55.3852 131.914C54.4559 131.914 53.4992 132.242 52.5152 132.898C51.5859 133.5 50.7112 134.538 49.8912 136.014C49.1259 137.436 48.4699 139.349 47.9232 141.754C47.4312 144.16 47.1852 147.166 47.1852 150.774C47.1852 154.382 47.4312 157.389 47.9232 159.794C48.4699 162.2 49.1259 164.14 49.8912 165.616C50.7112 167.038 51.5859 168.076 52.5152 168.732C53.4992 169.334 54.4559 169.634 55.3852 169.634C56.3146 169.634 57.2439 169.334 58.1732 168.732C59.1572 168.076 60.0319 167.038 60.7972 165.616C61.6172 164.14 62.2732 162.2 62.7652 159.794C63.3119 157.389 63.5852 154.382 63.5852 150.774C63.5852 147.166 63.3119 144.16 62.7652 141.754C62.2732 139.349 61.6172 137.436 60.7972 136.014C60.0319 134.538 59.1572 133.5 58.1732 132.898C57.2439 132.242 56.3146 131.914 55.3852 131.914ZM55.3852 130.684C57.4079 130.684 59.3486 131.149 61.2072 132.078C63.1206 132.953 64.7879 134.265 66.2092 136.014C67.6852 137.709 68.8332 139.814 69.6532 142.328C70.5279 144.788 70.9652 147.604 70.9652 150.774C70.9652 153.945 70.5279 156.788 69.6532 159.302C68.8332 161.762 67.6852 163.867 66.2092 165.616C64.7879 167.311 63.1206 168.623 61.2072 169.552C59.3486 170.427 57.4079 170.864 55.3852 170.864C53.3079 170.864 51.3399 170.427 49.4812 169.552C47.6226 168.623 45.9552 167.311 44.4792 165.616C43.0579 163.867 41.9099 161.762 41.0352 159.302C40.2152 156.788 39.8052 153.945 39.8052 150.774C39.8052 147.604 40.2152 144.788 41.0352 142.328C41.9099 139.814 43.0579 137.709 44.4792 136.014C45.9552 134.265 47.6226 132.953 49.4812 132.078C51.3399 131.149 53.3079 130.684 55.3852 130.684ZM82.4228 167.584V133.964L77.5028 132.734V131.914H88.9828V136.834C89.5295 135.741 90.2675 134.73 91.1968 133.8C91.9621 133.035 92.9461 132.324 94.1488 131.668C95.3515 131.012 96.7728 130.684 98.4128 130.684C100.49 130.684 102.185 131.067 103.497 131.832C104.863 132.598 105.957 133.445 106.777 134.374C107.761 135.468 108.526 136.698 109.073 138.064C109.783 136.698 110.631 135.468 111.615 134.374C112.489 133.445 113.555 132.598 114.813 131.832C116.07 131.067 117.573 130.684 119.323 130.684C120.963 130.684 122.466 130.985 123.833 131.586C125.254 132.188 126.484 133.035 127.523 134.128C128.561 135.167 129.354 136.452 129.901 137.982C130.502 139.458 130.803 141.126 130.803 142.984V167.584L135.723 168.814V169.634H119.733V168.814L124.243 167.584V142.984C124.243 139.103 123.614 136.37 122.357 134.784C121.154 133.144 119.733 132.324 118.093 132.324C116.726 132.324 115.551 132.707 114.567 133.472C113.583 134.238 112.735 135.085 112.025 136.014C111.205 137.108 110.494 138.338 109.893 139.704V167.584L114.403 168.814V169.634H98.8228V168.814L103.333 167.584V142.984C103.333 139.103 102.704 136.37 101.447 134.784C100.244 133.144 98.8228 132.324 97.1828 132.324C95.8161 132.324 94.6408 132.707 93.6568 133.472C92.6728 134.238 91.8255 135.085 91.1148 136.014C90.2948 137.108 89.5841 138.338 88.9828 139.704V167.584L93.4928 168.814V169.634H77.5028V168.814L82.4228 167.584ZM144.704 133.964L139.784 132.734V131.914H151.264V136.834C151.811 135.741 152.549 134.73 153.478 133.8C154.244 133.035 155.228 132.324 156.43 131.668C157.633 131.012 159.054 130.684 160.694 130.684C162.444 130.684 164.166 131.149 165.86 132.078C167.61 132.953 169.14 134.265 170.452 136.014C171.819 137.709 172.912 139.814 173.732 142.328C174.607 144.788 175.044 147.604 175.044 150.774C175.044 153.945 174.607 156.788 173.732 159.302C172.912 161.762 171.792 163.867 170.37 165.616C168.949 167.311 167.336 168.623 165.532 169.552C163.728 170.427 161.842 170.864 159.874 170.864C158.289 170.864 156.95 170.646 155.856 170.208C154.818 169.826 153.943 169.361 153.232 168.814C152.412 168.213 151.756 167.53 151.264 166.764V187.264L156.184 188.494V189.314H139.784V188.494L144.704 187.264V133.964ZM158.644 169.224C159.792 169.224 160.886 168.924 161.924 168.322C163.018 167.721 163.974 166.71 164.794 165.288C165.669 163.812 166.352 161.899 166.844 159.548C167.391 157.198 167.664 154.273 167.664 150.774C167.664 147.276 167.391 144.351 166.844 142C166.352 139.65 165.696 137.764 164.876 136.342C164.111 134.921 163.236 133.91 162.252 133.308C161.323 132.652 160.394 132.324 159.464 132.324C158.098 132.324 156.922 132.707 155.938 133.472C154.954 134.238 154.107 135.085 153.396 136.014C152.576 137.108 151.866 138.338 151.264 139.704V164.304C151.756 165.234 152.358 166.054 153.068 166.764C153.67 167.366 154.435 167.94 155.364 168.486C156.294 168.978 157.387 169.224 158.644 169.224ZM185.314 167.584V114.284L180.394 113.054V112.234H191.874V167.584L196.794 168.814V169.634H180.394V168.814L185.314 167.584ZM209.904 150.774C209.904 154.273 210.15 157.198 210.642 159.548C211.189 161.899 211.872 163.812 212.692 165.288C213.567 166.71 214.523 167.721 215.562 168.322C216.655 168.924 217.776 169.224 218.924 169.224C220.345 169.224 221.685 168.951 222.942 168.404C224.199 167.858 225.32 167.12 226.304 166.19C227.288 165.261 228.081 164.14 228.682 162.828C229.338 161.516 229.775 160.095 229.994 158.564H231.224C231.005 160.314 230.513 161.954 229.748 163.484C229.037 164.96 228.108 166.245 226.96 167.338C225.812 168.432 224.473 169.279 222.942 169.88C221.466 170.536 219.853 170.864 218.104 170.864C216.027 170.864 214.059 170.427 212.2 169.552C210.341 168.623 208.674 167.311 207.198 165.616C205.777 163.867 204.629 161.762 203.754 159.302C202.934 156.788 202.524 153.945 202.524 150.774C202.524 147.494 202.934 144.597 203.754 142.082C204.574 139.568 205.64 137.49 206.952 135.85C208.319 134.156 209.877 132.871 211.626 131.996C213.43 131.122 215.316 130.684 217.284 130.684C219.252 130.684 221.111 131.122 222.86 131.996C224.664 132.871 226.222 134.156 227.534 135.85C228.901 137.49 229.994 139.568 230.814 142.082C231.634 144.597 232.044 147.494 232.044 150.774H209.904ZM217.284 131.914C216.464 131.914 215.644 132.188 214.824 132.734C214.004 133.226 213.239 134.128 212.528 135.44C211.817 136.752 211.216 138.529 210.724 140.77C210.287 142.957 210.013 145.745 209.904 149.134H224.664C224.555 145.745 224.254 142.957 223.762 140.77C223.325 138.529 222.751 136.752 222.04 135.44C221.329 134.128 220.564 133.226 219.744 132.734C218.924 132.188 218.104 131.914 217.284 131.914ZM249.29 156.268V167.584L253.8 168.814V169.634H237.81V168.814L242.73 167.584V114.284L237.81 113.054V112.234H249.29V154.054L262.82 134.784L257.49 132.734V131.914H269.79V132.734L264.46 134.784L256.506 146.1L269.38 167.584L274.3 168.814V169.634H257.49V168.814L262 167.584L252.488 151.758L249.29 156.268ZM290.696 170.864C288.947 170.864 287.444 170.646 286.186 170.208C284.929 169.826 283.918 169.361 283.152 168.814C282.223 168.213 281.458 167.53 280.856 166.764C280.638 167.584 280.173 168.35 279.462 169.06C278.806 169.771 278.178 170.236 277.576 170.454H276.346C276.401 169.744 276.456 169.006 276.51 168.24C276.565 167.584 276.62 166.901 276.674 166.19C276.729 165.425 276.756 164.66 276.756 163.894C276.756 163.074 276.729 162.254 276.674 161.434C276.62 160.614 276.565 159.876 276.51 159.22C276.456 158.455 276.401 157.69 276.346 156.924H277.576C278.615 160.86 280.2 163.894 282.332 166.026C284.464 168.158 286.979 169.224 289.876 169.224C292.172 169.224 294.031 168.514 295.452 167.092C296.928 165.671 297.666 163.922 297.666 161.844C297.666 160.368 297.147 159.084 296.108 157.99C295.124 156.897 293.867 155.913 292.336 155.038C290.806 154.109 289.166 153.207 287.416 152.332C285.667 151.458 284.027 150.474 282.496 149.38C280.966 148.287 279.681 147.002 278.642 145.526C277.658 144.05 277.166 142.246 277.166 140.114C277.166 138.912 277.44 137.736 277.986 136.588C278.533 135.44 279.271 134.429 280.2 133.554C281.184 132.68 282.36 131.996 283.726 131.504C285.093 130.958 286.596 130.684 288.236 130.684C289.658 130.684 290.888 130.903 291.926 131.34C293.02 131.778 293.949 132.242 294.714 132.734C295.534 133.336 296.245 134.019 296.846 134.784C297.065 133.964 297.502 133.199 298.158 132.488C298.869 131.778 299.525 131.313 300.126 131.094H301.356C301.247 131.805 301.165 132.543 301.11 133.308C301.056 133.964 301.001 134.675 300.946 135.44C300.946 136.206 300.946 136.944 300.946 137.654C300.946 138.474 300.946 139.322 300.946 140.196C301.001 141.016 301.056 141.754 301.11 142.41C301.165 143.176 301.247 143.914 301.356 144.624H300.126C299.088 140.688 297.557 137.654 295.534 135.522C293.512 133.39 291.352 132.324 289.056 132.324C287.198 132.324 285.64 132.953 284.382 134.21C283.125 135.413 282.496 136.834 282.496 138.474C282.496 139.841 283.016 141.016 284.054 142C285.093 142.984 286.378 143.914 287.908 144.788C289.439 145.608 291.106 146.456 292.91 147.33C294.769 148.205 296.464 149.216 297.994 150.364C299.525 151.512 300.81 152.879 301.848 154.464C302.887 156.05 303.406 157.963 303.406 160.204C303.406 161.516 303.078 162.828 302.422 164.14C301.821 165.398 300.946 166.546 299.798 167.584C298.705 168.568 297.366 169.361 295.78 169.962C294.25 170.564 292.555 170.864 290.696 170.864ZM325.569 131.914C324.639 131.914 323.683 132.242 322.699 132.898C321.769 133.5 320.895 134.538 320.075 136.014C319.309 137.436 318.653 139.349 318.107 141.754C317.615 144.16 317.369 147.166 317.369 150.774C317.369 154.382 317.615 157.389 318.107 159.794C318.653 162.2 319.309 164.14 320.075 165.616C320.895 167.038 321.769 168.076 322.699 168.732C323.683 169.334 324.639 169.634 325.569 169.634C326.498 169.634 327.427 169.334 328.357 168.732C329.341 168.076 330.215 167.038 330.981 165.616C331.801 164.14 332.457 162.2 332.949 159.794C333.495 157.389 333.769 154.382 333.769 150.774C333.769 147.166 333.495 144.16 332.949 141.754C332.457 139.349 331.801 137.436 330.981 136.014C330.215 134.538 329.341 133.5 328.357 132.898C327.427 132.242 326.498 131.914 325.569 131.914ZM325.569 130.684C327.591 130.684 329.532 131.149 331.391 132.078C333.304 132.953 334.971 134.265 336.393 136.014C337.869 137.709 339.017 139.814 339.837 142.328C340.711 144.788 341.149 147.604 341.149 150.774C341.149 153.945 340.711 156.788 339.837 159.302C339.017 161.762 337.869 163.867 336.393 165.616C334.971 167.311 333.304 168.623 331.391 169.552C329.532 170.427 327.591 170.864 325.569 170.864C323.491 170.864 321.523 170.427 319.665 169.552C317.806 168.623 316.139 167.311 314.663 165.616C313.241 163.867 312.093 161.762 311.219 159.302C310.399 156.788 309.989 153.945 309.989 150.774C309.989 147.604 310.399 144.788 311.219 142.328C312.093 139.814 313.241 137.709 314.663 136.014C316.139 134.265 317.806 132.953 319.665 132.078C321.523 131.149 323.491 130.684 325.569 130.684ZM361.646 170.864H360.416L348.116 133.964L343.196 132.734V131.914H359.596V132.734L355.086 133.964L363.614 159.63L372.716 130.684H373.946L384.442 159.63L391.986 134.784L386.656 132.734V131.914H398.956V132.734L393.626 134.784L382.556 170.864H381.326L370.748 141.836L361.646 170.864ZM415.378 176.604C414.503 179.174 413.656 181.306 412.836 183C412.016 184.75 411.141 186.144 410.212 187.182C409.337 188.276 408.408 189.041 407.424 189.478C406.495 189.916 405.456 190.134 404.308 190.134C403.98 190.134 403.679 190.107 403.406 190.052C403.133 190.052 402.859 190.025 402.586 189.97C402.313 189.916 402.067 189.834 401.848 189.724L400.618 183.574C400.837 183.684 401.083 183.766 401.356 183.82C401.629 183.875 401.903 183.902 402.176 183.902C402.449 183.957 402.75 183.984 403.078 183.984C406.358 183.984 408.736 183.356 410.212 182.098C411.743 180.896 412.918 179.064 413.738 176.604L416.034 169.634L401.848 133.964L396.928 132.734V131.914H413.328V132.734L408.818 133.964L419.232 160.122L427.678 134.784L422.348 132.734V131.914H434.648V132.734L429.318 134.784L415.378 176.604ZM460.052 133.964L455.132 132.734V131.914H466.612V136.834C467.159 135.741 467.897 134.73 468.826 133.8C469.591 133.035 470.575 132.324 471.778 131.668C472.981 131.012 474.402 130.684 476.042 130.684C477.791 130.684 479.513 131.149 481.208 132.078C482.957 132.953 484.488 134.265 485.8 136.014C487.167 137.709 488.26 139.814 489.08 142.328C489.955 144.788 490.392 147.604 490.392 150.774C490.392 153.945 489.955 156.788 489.08 159.302C488.26 161.762 487.139 163.867 485.718 165.616C484.297 167.311 482.684 168.623 480.88 169.552C479.076 170.427 477.19 170.864 475.222 170.864C473.637 170.864 472.297 170.646 471.204 170.208C470.165 169.826 469.291 169.361 468.58 168.814C467.76 168.213 467.104 167.53 466.612 166.764V187.264L471.532 188.494V189.314H455.132V188.494L460.052 187.264V133.964ZM473.992 169.224C475.14 169.224 476.233 168.924 477.272 168.322C478.365 167.721 479.322 166.71 480.142 165.288C481.017 163.812 481.7 161.899 482.192 159.548C482.739 157.198 483.012 154.273 483.012 150.774C483.012 147.276 482.739 144.351 482.192 142C481.7 139.65 481.044 137.764 480.224 136.342C479.459 134.921 478.584 133.91 477.6 133.308C476.671 132.652 475.741 132.324 474.812 132.324C473.445 132.324 472.27 132.707 471.286 133.472C470.302 134.238 469.455 135.085 468.744 136.014C467.924 137.108 467.213 138.338 466.612 139.704V164.304C467.104 165.234 467.705 166.054 468.416 166.764C469.017 167.366 469.783 167.94 470.712 168.486C471.641 168.978 472.735 169.224 473.992 169.224ZM508.432 167.584L513.352 168.814V169.634H496.952V168.814L501.872 167.584V133.964L496.952 132.734V131.914H508.432V141.754C509.143 139.732 509.99 137.9 510.974 136.26C511.849 134.839 512.915 133.554 514.172 132.406C515.429 131.258 516.933 130.684 518.682 130.684C519.283 130.684 519.857 130.739 520.404 130.848C520.951 130.903 521.443 130.985 521.88 131.094C522.372 131.258 522.809 131.395 523.192 131.504L520.732 137.654C520.404 137.49 520.049 137.299 519.666 137.08C519.338 136.916 518.928 136.78 518.436 136.67C517.999 136.506 517.534 136.424 517.042 136.424C515.621 136.424 514.363 136.807 513.27 137.572C512.177 138.338 511.275 139.185 510.564 140.114C509.689 141.208 508.979 142.438 508.432 143.804V167.584ZM549.871 167.994C549.871 165.698 550.336 163.676 551.265 161.926C552.194 160.122 553.37 158.592 554.791 157.334H555.611C555.502 158.045 555.42 158.756 555.365 159.466C555.31 160.068 555.256 160.751 555.201 161.516C555.201 162.227 555.201 162.883 555.201 163.484C555.201 164.414 555.201 165.261 555.201 166.026C555.256 166.737 555.31 167.366 555.365 167.912C555.42 168.514 555.502 169.088 555.611 169.634H526.501L547.001 133.554H533.881C533.881 135.85 533.416 137.9 532.487 139.704C531.558 141.454 530.382 142.957 528.961 144.214H528.141C528.196 143.504 528.25 142.793 528.305 142.082C528.36 141.481 528.414 140.825 528.469 140.114C528.524 139.349 528.551 138.666 528.551 138.064C528.551 137.135 528.524 136.315 528.469 135.604C528.414 134.839 528.36 134.183 528.305 133.636C528.25 133.035 528.196 132.461 528.141 131.914H555.611L535.111 167.994H549.871ZM569.935 150.774C569.935 154.273 570.181 157.198 570.673 159.548C571.22 161.899 571.903 163.812 572.723 165.288C573.598 166.71 574.555 167.721 575.593 168.322C576.687 168.924 577.807 169.224 578.955 169.224C580.377 169.224 581.716 168.951 582.973 168.404C584.231 167.858 585.351 167.12 586.335 166.19C587.319 165.261 588.112 164.14 588.713 162.828C589.369 161.516 589.807 160.095 590.025 158.564H591.255C591.037 160.314 590.545 161.954 589.779 163.484C589.069 164.96 588.139 166.245 586.991 167.338C585.843 168.432 584.504 169.279 582.973 169.88C581.497 170.536 579.885 170.864 578.135 170.864C576.058 170.864 574.09 170.427 572.231 169.552C570.373 168.623 568.705 167.311 567.229 165.616C565.808 163.867 564.66 161.762 563.785 159.302C562.965 156.788 562.555 153.945 562.555 150.774C562.555 147.494 562.965 144.597 563.785 142.082C564.605 139.568 565.671 137.49 566.983 135.85C568.35 134.156 569.908 132.871 571.657 131.996C573.461 131.122 575.347 130.684 577.315 130.684C579.283 130.684 581.142 131.122 582.891 131.996C584.695 132.871 586.253 134.156 587.565 135.85C588.932 137.49 590.025 139.568 590.845 142.082C591.665 144.597 592.075 147.494 592.075 150.774H569.935ZM577.315 131.914C576.495 131.914 575.675 132.188 574.855 132.734C574.035 133.226 573.27 134.128 572.559 135.44C571.849 136.752 571.247 138.529 570.755 140.77C570.318 142.957 570.045 145.745 569.935 149.134H584.695C584.586 145.745 584.285 142.957 583.793 140.77C583.356 138.529 582.782 136.752 582.071 135.44C581.361 134.128 580.595 133.226 579.775 132.734C578.955 132.188 578.135 131.914 577.315 131.914ZM613.421 157.334C614.35 157.334 615.252 157.116 616.127 156.678C617.002 156.186 617.794 155.421 618.505 154.382C619.216 153.344 619.762 152.032 620.145 150.446C620.582 148.806 620.801 146.866 620.801 144.624C620.801 142.383 620.582 140.47 620.145 138.884C619.762 137.244 619.216 135.932 618.505 134.948C617.794 133.91 617.002 133.144 616.127 132.652C615.252 132.16 614.35 131.914 613.421 131.914C612.492 131.914 611.59 132.16 610.715 132.652C609.84 133.144 609.048 133.91 608.337 134.948C607.626 135.932 607.052 137.244 606.615 138.884C606.232 140.47 606.041 142.383 606.041 144.624C606.041 146.866 606.232 148.806 606.615 150.446C607.052 152.032 607.626 153.344 608.337 154.382C609.048 155.421 609.84 156.186 610.715 156.678C611.59 157.116 612.492 157.334 613.421 157.334ZM615.061 188.986C617.084 188.986 618.915 188.686 620.555 188.084C622.195 187.538 623.562 186.772 624.655 185.788C625.803 184.804 626.678 183.656 627.279 182.344C627.88 181.032 628.181 179.666 628.181 178.244C628.181 173.051 625.584 170.454 620.391 170.454H607.271C604.155 170.454 601.859 169.826 600.383 168.568C598.962 167.311 598.251 165.753 598.251 163.894C598.251 162.637 598.552 161.544 599.153 160.614C599.809 159.63 600.52 158.756 601.285 157.99C602.214 157.17 603.253 156.405 604.401 155.694C603.308 154.984 602.351 154.109 601.531 153.07C600.766 152.141 600.082 150.993 599.481 149.626C598.934 148.26 598.661 146.592 598.661 144.624C598.661 142.656 599.016 140.825 599.727 139.13C600.492 137.436 601.531 135.96 602.843 134.702C604.155 133.445 605.713 132.461 607.517 131.75C609.321 131.04 611.289 130.684 613.421 130.684C614.35 130.684 615.252 130.766 616.127 130.93C617.002 131.094 617.794 131.286 618.505 131.504C619.325 131.723 620.09 131.996 620.801 132.324C621.238 131.723 621.758 131.176 622.359 130.684C622.906 130.247 623.589 129.864 624.409 129.536C625.229 129.208 626.213 129.044 627.361 129.044C629.22 129.044 630.668 129.4 631.707 130.11C632.8 130.766 633.648 131.504 634.249 132.324C634.905 133.308 635.342 134.402 635.561 135.604L629.411 136.834C629.247 135.741 629.001 134.73 628.673 133.8C628.4 133.035 628.017 132.324 627.525 131.668C627.033 131.012 626.432 130.684 625.721 130.684C625.12 130.684 624.573 130.821 624.081 131.094C623.589 131.368 623.206 131.641 622.933 131.914C622.55 132.297 622.25 132.707 622.031 133.144C624.108 134.402 625.639 136.014 626.623 137.982C627.662 139.95 628.181 142.164 628.181 144.624C628.181 146.592 627.798 148.424 627.033 150.118C626.322 151.813 625.311 153.289 623.999 154.546C622.687 155.804 621.129 156.788 619.325 157.498C617.521 158.209 615.553 158.564 613.421 158.564C612.273 158.564 611.234 158.482 610.305 158.318C609.376 158.1 608.556 157.854 607.845 157.58C607.025 157.307 606.287 156.952 605.631 156.514C604.866 157.006 604.182 157.526 603.581 158.072C603.034 158.51 602.542 159.029 602.105 159.63C601.722 160.232 601.531 160.833 601.531 161.434C601.531 162.254 601.914 162.938 602.679 163.484C603.444 163.976 604.975 164.222 607.271 164.222H620.391C623.671 164.222 626.322 165.288 628.345 167.42C630.422 169.498 631.461 172.286 631.461 175.784C631.461 177.862 631.051 179.775 630.231 181.524C629.466 183.328 628.372 184.886 626.951 186.198C625.53 187.565 623.808 188.631 621.785 189.396C619.762 190.162 617.521 190.544 615.061 190.544C612 190.544 609.321 190.189 607.025 189.478C604.784 188.822 602.925 187.893 601.449 186.69C599.973 185.542 598.852 184.176 598.087 182.59C597.376 181.005 597.021 179.283 597.021 177.424C597.021 176.714 597.103 176.058 597.267 175.456C597.431 174.91 597.622 174.445 597.841 174.062C598.06 173.625 598.333 173.242 598.661 172.914L604.811 175.374C604.647 175.757 604.51 176.167 604.401 176.604C604.128 177.424 603.991 178.244 603.991 179.064C603.991 181.962 604.948 184.34 606.861 186.198C608.829 188.057 611.562 188.986 615.061 188.986ZM641.759 167.584V114.284L636.839 113.054V112.234H648.319V167.584L653.239 168.814V169.634H636.839V168.814L641.759 167.584ZM679.879 149.544C675.123 149.544 671.597 150.61 669.301 152.742C667.06 154.82 665.939 157.717 665.939 161.434C665.939 163.894 666.541 165.808 667.743 167.174C668.946 168.541 670.258 169.224 671.679 169.224C672.991 169.224 674.139 168.842 675.123 168.076C676.162 167.311 677.037 166.464 677.747 165.534C678.567 164.496 679.278 163.266 679.879 161.844V149.544ZM673.729 131.914C672.089 131.914 670.723 132.488 669.629 133.636C668.536 134.73 667.989 136.206 667.989 138.064C667.989 138.502 667.989 138.884 667.989 139.212C668.044 139.54 668.099 139.841 668.153 140.114C668.208 140.388 668.29 140.661 668.399 140.934L661.839 142.574C661.73 142.41 661.648 142.192 661.593 141.918C661.539 141.645 661.484 141.344 661.429 141.016C661.429 140.688 661.429 140.251 661.429 139.704C661.429 138.556 661.703 137.463 662.249 136.424C662.796 135.331 663.589 134.374 664.627 133.554C665.721 132.68 667.005 131.996 668.481 131.504C670.012 130.958 671.761 130.684 673.729 130.684C677.665 130.684 680.754 131.805 682.995 134.046C685.291 136.288 686.439 139.267 686.439 142.984V167.584L691.359 168.814V169.634H679.879V164.714C679.278 165.862 678.513 166.901 677.583 167.83C676.818 168.596 675.834 169.279 674.631 169.88C673.483 170.536 672.089 170.864 670.449 170.864C666.513 170.864 663.534 169.935 661.511 168.076C659.543 166.218 658.559 163.73 658.559 160.614C658.559 159.084 658.969 157.553 659.789 156.022C660.664 154.492 661.949 153.125 663.643 151.922C665.393 150.72 667.607 149.763 670.285 149.052C672.964 148.287 676.162 147.904 679.879 147.904V142.984C679.879 138.884 679.251 136.014 677.993 134.374C676.791 132.734 675.369 131.914 673.729 131.914ZM679.469 176.604C679.469 175.511 679.907 174.527 680.781 173.652C681.656 172.778 682.64 172.04 683.733 171.438C684.991 170.782 686.439 170.181 688.079 169.634H691.359C689.938 170.29 688.708 171.001 687.669 171.766C686.74 172.422 685.893 173.16 685.127 173.98C684.362 174.8 683.979 175.675 683.979 176.604C683.979 177.424 684.253 178.108 684.799 178.654C685.401 179.201 686.221 179.474 687.259 179.474C687.751 179.474 688.216 179.365 688.653 179.146C689.145 178.982 689.555 178.764 689.883 178.49C690.266 178.217 690.621 177.862 690.949 177.424V179.474C690.621 179.802 690.184 180.076 689.637 180.294C689.2 180.513 688.653 180.704 687.997 180.868C687.341 181.032 686.549 181.114 685.619 181.114C683.542 181.114 681.984 180.677 680.945 179.802C679.961 178.928 679.469 177.862 679.469 176.604ZM713.076 132.324C711.928 132.324 710.808 132.652 709.714 133.308C708.676 133.91 707.719 134.921 706.844 136.342C706.024 137.764 705.341 139.65 704.794 142C704.302 144.351 704.056 147.276 704.056 150.774C704.056 154.273 704.302 157.198 704.794 159.548C705.341 161.899 705.997 163.812 706.762 165.288C707.582 166.71 708.457 167.721 709.386 168.322C710.37 168.924 711.327 169.224 712.256 169.224C713.568 169.224 714.716 168.842 715.7 168.076C716.739 167.311 717.614 166.464 718.324 165.534C719.144 164.496 719.855 163.266 720.456 161.844V137.244C719.91 136.315 719.281 135.495 718.57 134.784C717.969 134.183 717.204 133.636 716.274 133.144C715.4 132.598 714.334 132.324 713.076 132.324ZM727.016 167.584L731.936 168.814V169.634H720.456V164.714C719.855 165.862 719.09 166.901 718.16 167.83C717.395 168.596 716.411 169.279 715.208 169.88C714.06 170.536 712.666 170.864 711.026 170.864C709.277 170.864 707.528 170.427 705.778 169.552C704.084 168.623 702.553 167.311 701.186 165.616C699.874 163.867 698.781 161.762 697.906 159.302C697.086 156.788 696.676 153.945 696.676 150.774C696.676 147.604 697.086 144.788 697.906 142.328C698.781 139.814 699.929 137.709 701.35 136.014C702.772 134.265 704.384 132.953 706.188 132.078C707.992 131.149 709.878 130.684 711.846 130.684C713.377 130.684 714.689 130.903 715.782 131.34C716.876 131.778 717.778 132.242 718.488 132.734C719.308 133.336 719.964 134.019 720.456 134.784V114.284L715.536 113.054V112.234H727.016V167.584Z" fill="black"/>
    <path d="M52.78 101.584L57.7 102.814V103.634H40.89V102.814L45.81 101.584V47.8743H37.2C37.2 50.1703 36.7353 52.3023 35.806 54.2703C34.8767 56.2383 33.7013 57.9329 32.28 59.3543H31.46C31.5147 58.6436 31.5693 57.9056 31.624 57.1403C31.6787 56.4843 31.7333 55.8009 31.788 55.0903C31.8427 54.3249 31.87 53.5596 31.87 52.7943C31.87 51.7556 31.8427 50.8536 31.788 50.0883C31.7333 49.2683 31.6787 48.5576 31.624 47.9563C31.5693 47.3003 31.5147 46.7263 31.46 46.2343H67.13C67.0207 46.7263 66.9387 47.3003 66.884 47.9563C66.8293 48.5576 66.7747 49.2683 66.72 50.0883C66.72 50.8536 66.72 51.7556 66.72 52.7943C66.72 53.5596 66.72 54.3249 66.72 55.0903C66.7747 55.8009 66.8293 56.4843 66.884 57.1403C66.9387 57.9056 67.0207 58.6436 67.13 59.3543H66.31C64.8887 57.9329 63.7133 56.2383 62.784 54.2703C61.8547 52.3023 61.39 50.1703 61.39 47.8743H52.78V101.584ZM83.1456 104.864H81.9156L69.6156 67.9643L64.6956 66.7343V65.9143H81.0956V66.7343L76.5856 67.9643L85.1136 93.6303L94.2156 64.6843H95.4456L105.942 93.6303L113.486 68.7843L108.156 66.7343V65.9143H120.456V66.7343L115.126 68.7843L104.056 104.864H102.826L92.2476 75.8363L83.1456 104.864ZM137.717 65.9143C136.788 65.9143 135.831 66.2423 134.847 66.8983C133.918 67.4996 133.043 68.5383 132.223 70.0143C131.458 71.4356 130.802 73.3489 130.255 75.7543C129.763 78.1596 129.517 81.1663 129.517 84.7743C129.517 88.3823 129.763 91.3889 130.255 93.7943C130.802 96.1996 131.458 98.1403 132.223 99.6163C133.043 101.038 133.918 102.076 134.847 102.732C135.831 103.334 136.788 103.634 137.717 103.634C138.647 103.634 139.576 103.334 140.505 102.732C141.489 102.076 142.364 101.038 143.129 99.6163C143.949 98.1403 144.605 96.1996 145.097 93.7943C145.644 91.3889 145.917 88.3823 145.917 84.7743C145.917 81.1663 145.644 78.1596 145.097 75.7543C144.605 73.3489 143.949 71.4356 143.129 70.0143C142.364 68.5383 141.489 67.4996 140.505 66.8983C139.576 66.2423 138.647 65.9143 137.717 65.9143ZM137.717 64.6843C139.74 64.6843 141.681 65.1489 143.539 66.0783C145.453 66.9529 147.12 68.2649 148.541 70.0143C150.017 71.7089 151.165 73.8136 151.985 76.3283C152.86 78.7883 153.297 81.6036 153.297 84.7743C153.297 87.9449 152.86 90.7876 151.985 93.3023C151.165 95.7623 150.017 97.8669 148.541 99.6163C147.12 101.311 145.453 102.623 143.539 103.552C141.681 104.427 139.74 104.864 137.717 104.864C135.64 104.864 133.672 104.427 131.813 103.552C129.955 102.623 128.287 101.311 126.811 99.6163C125.39 97.8669 124.242 95.7623 123.367 93.3023C122.547 90.7876 122.137 87.9449 122.137 84.7743C122.137 81.6036 122.547 78.7883 123.367 76.3283C124.242 73.8136 125.39 71.7089 126.811 70.0143C128.287 68.2649 129.955 66.9529 131.813 66.0783C133.672 65.1489 135.64 64.6843 137.717 64.6843ZM138.947 51.5643H146.327L138.127 61.4043H135.667L138.947 51.5643ZM152.045 115.934C152.045 115.005 152.182 114.158 152.455 113.392C152.728 112.682 153.056 112.053 153.439 111.506C153.876 110.905 154.368 110.331 154.915 109.784L161.065 112.244C160.518 112.791 160.026 113.365 159.589 113.966C159.206 114.513 158.878 115.142 158.605 115.852C158.332 116.618 158.195 117.465 158.195 118.394C158.195 119.816 158.55 120.909 159.261 121.674C159.972 122.494 160.846 122.904 161.885 122.904C162.377 122.904 162.869 122.74 163.361 122.412C163.853 122.139 164.29 121.62 164.673 120.854C165.056 120.144 165.356 119.16 165.575 117.902C165.848 116.645 165.985 115.032 165.985 113.064V67.9643L161.065 66.7343V65.9143H172.545V113.064C172.545 114.704 172.272 116.208 171.725 117.574C171.178 118.941 170.44 120.089 169.511 121.018C168.582 122.002 167.461 122.768 166.149 123.314C164.837 123.861 163.416 124.134 161.885 124.134C160.464 124.134 159.152 123.888 157.949 123.396C156.746 122.959 155.708 122.358 154.833 121.592C153.958 120.827 153.275 119.952 152.783 118.968C152.291 117.984 152.045 116.973 152.045 115.934ZM172.955 56.4843C172.955 57.5229 172.518 58.4796 171.643 59.3543C170.823 60.1743 169.894 60.5843 168.855 60.5843C167.816 60.5843 166.86 60.1743 165.985 59.3543C165.165 58.4796 164.755 57.5229 164.755 56.4843C164.755 55.4456 165.165 54.5163 165.985 53.6963C166.86 52.8216 167.816 52.3843 168.855 52.3843C169.894 52.3843 170.823 52.8216 171.643 53.6963C172.518 54.5163 172.955 55.4456 172.955 56.4843Z" fill="#CC8E1E"/>
    <path d="M254.63 236.864C252.881 236.864 251.377 236.646 250.12 236.208C248.863 235.826 247.851 235.361 247.086 234.814C246.157 234.213 245.391 233.53 244.79 232.764C244.571 233.584 244.107 234.35 243.396 235.06C242.74 235.771 242.111 236.236 241.51 236.454H240.28C240.335 235.744 240.389 235.006 240.444 234.24C240.499 233.584 240.553 232.901 240.608 232.19C240.663 231.425 240.69 230.66 240.69 229.894C240.69 229.074 240.663 228.254 240.608 227.434C240.553 226.614 240.499 225.876 240.444 225.22C240.389 224.455 240.335 223.69 240.28 222.924H241.51C242.549 226.86 244.134 229.894 246.266 232.026C248.398 234.158 250.913 235.224 253.81 235.224C256.106 235.224 257.965 234.514 259.386 233.092C260.862 231.671 261.6 229.922 261.6 227.844C261.6 226.368 261.081 225.084 260.042 223.99C259.058 222.897 257.801 221.913 256.27 221.038C254.739 220.109 253.099 219.207 251.35 218.332C249.601 217.458 247.961 216.474 246.43 215.38C244.899 214.287 243.615 213.002 242.576 211.526C241.592 210.05 241.1 208.246 241.1 206.114C241.1 204.912 241.373 203.736 241.92 202.588C242.467 201.44 243.205 200.429 244.134 199.554C245.118 198.68 246.293 197.996 247.66 197.504C249.027 196.958 250.53 196.684 252.17 196.684C253.591 196.684 254.821 196.903 255.86 197.34C256.953 197.778 257.883 198.242 258.648 198.734C259.468 199.336 260.179 200.019 260.78 200.784C260.999 199.964 261.436 199.199 262.092 198.488C262.803 197.778 263.459 197.313 264.06 197.094H265.29C265.181 197.805 265.099 198.543 265.044 199.308C264.989 199.964 264.935 200.675 264.88 201.44C264.88 202.206 264.88 202.944 264.88 203.654C264.88 204.474 264.88 205.322 264.88 206.196C264.935 207.016 264.989 207.754 265.044 208.41C265.099 209.176 265.181 209.914 265.29 210.624H264.06C263.021 206.688 261.491 203.654 259.468 201.522C257.445 199.39 255.286 198.324 252.99 198.324C251.131 198.324 249.573 198.953 248.316 200.21C247.059 201.413 246.43 202.834 246.43 204.474C246.43 205.841 246.949 207.016 247.988 208C249.027 208.984 250.311 209.914 251.842 210.788C253.373 211.608 255.04 212.456 256.844 213.33C258.703 214.205 260.397 215.216 261.928 216.364C263.459 217.512 264.743 218.879 265.782 220.464C266.821 222.05 267.34 223.963 267.34 226.204C267.34 227.516 267.012 228.828 266.356 230.14C265.755 231.398 264.88 232.546 263.732 233.584C262.639 234.568 261.299 235.361 259.714 235.962C258.183 236.564 256.489 236.864 254.63 236.864ZM294.012 197.914V199.554H284.582V225.712C284.582 229.047 285.184 231.48 286.386 233.01C287.589 234.486 288.901 235.224 290.322 235.224C292.181 235.224 293.739 234.541 294.996 233.174C296.308 231.753 297.074 229.703 297.292 227.024H298.522C298.304 230.14 297.347 232.573 295.652 234.322C294.012 236.017 291.962 236.864 289.502 236.864C286.004 236.864 283.216 235.853 281.138 233.83C279.061 231.753 278.022 229.074 278.022 225.794V199.554H271.052V197.914H278.022V188.484L284.582 183.974V197.914H294.012ZM323.981 215.544C319.225 215.544 315.699 216.61 313.403 218.742C311.162 220.82 310.041 223.717 310.041 227.434C310.041 229.894 310.642 231.808 311.845 233.174C313.048 234.541 314.36 235.224 315.781 235.224C317.093 235.224 318.241 234.842 319.225 234.076C320.264 233.311 321.138 232.464 321.849 231.534C322.669 230.496 323.38 229.266 323.981 227.844V215.544ZM317.831 197.914C316.191 197.914 314.824 198.488 313.731 199.636C312.638 200.73 312.091 202.206 312.091 204.064C312.091 204.502 312.091 204.884 312.091 205.212C312.146 205.54 312.2 205.841 312.255 206.114C312.31 206.388 312.392 206.661 312.501 206.934L305.941 208.574C305.832 208.41 305.75 208.192 305.695 207.918C305.64 207.645 305.586 207.344 305.531 207.016C305.531 206.688 305.531 206.251 305.531 205.704C305.531 204.556 305.804 203.463 306.351 202.424C306.898 201.331 307.69 200.374 308.729 199.554C309.822 198.68 311.107 197.996 312.583 197.504C314.114 196.958 315.863 196.684 317.831 196.684C321.767 196.684 324.856 197.805 327.097 200.046C329.393 202.288 330.541 205.267 330.541 208.984V233.584L335.461 234.814V235.634H323.981V230.714C323.38 231.862 322.614 232.901 321.685 233.83C320.92 234.596 319.936 235.279 318.733 235.88C317.585 236.536 316.191 236.864 314.551 236.864C310.615 236.864 307.636 235.935 305.613 234.076C303.645 232.218 302.661 229.73 302.661 226.614C302.661 225.084 303.071 223.553 303.891 222.022C304.766 220.492 306.05 219.125 307.745 217.922C309.494 216.72 311.708 215.763 314.387 215.052C317.066 214.287 320.264 213.904 323.981 213.904V208.984C323.981 204.884 323.352 202.014 322.095 200.374C320.892 198.734 319.471 197.914 317.831 197.914ZM345.288 233.584V199.964L340.368 198.734V197.914H351.848V202.834C352.395 201.741 353.133 200.73 354.062 199.8C354.827 199.035 355.811 198.324 357.014 197.668C358.217 197.012 359.638 196.684 361.278 196.684C362.918 196.684 364.421 196.985 365.788 197.586C367.209 198.188 368.439 199.035 369.478 200.128C370.517 201.167 371.309 202.452 371.856 203.982C372.457 205.458 372.758 207.126 372.758 208.984V233.584L377.678 234.814V235.634H361.688V234.814L366.198 233.584V208.984C366.198 205.103 365.569 202.37 364.312 200.784C363.109 199.144 361.688 198.324 360.048 198.324C358.681 198.324 357.506 198.707 356.522 199.472C355.538 200.238 354.691 201.085 353.98 202.014C353.16 203.108 352.449 204.338 351.848 205.704V233.584L356.358 234.814V235.634H340.368V234.814L345.288 233.584ZM413.319 199.964V233.584L418.239 234.814V235.634H406.759V230.714C406.158 231.862 405.393 232.901 404.463 233.83C403.698 234.596 402.714 235.279 401.511 235.88C400.363 236.536 398.969 236.864 397.329 236.864C395.689 236.864 394.159 236.564 392.737 235.962C391.371 235.361 390.168 234.541 389.129 233.502C388.091 232.409 387.271 231.124 386.669 229.648C386.123 228.118 385.849 226.423 385.849 224.564V199.964L380.929 198.734V197.914H396.919V198.734L392.409 199.964V224.564C392.409 228.446 393.011 231.206 394.213 232.846C395.471 234.432 396.919 235.224 398.559 235.224C399.871 235.224 401.019 234.842 402.003 234.076C403.042 233.311 403.917 232.464 404.627 231.534C405.447 230.496 406.158 229.266 406.759 227.844V199.964L402.249 198.734V197.914H418.239V198.734L413.319 199.964ZM467.039 233.994C467.039 231.698 467.503 229.676 468.433 227.926C469.362 226.122 470.537 224.592 471.959 223.334H472.779C472.669 224.045 472.587 224.756 472.533 225.466C472.478 226.068 472.423 226.751 472.369 227.516C472.369 228.227 472.369 228.883 472.369 229.484C472.369 230.414 472.369 231.261 472.369 232.026C472.423 232.737 472.478 233.366 472.533 233.912C472.587 234.514 472.669 235.088 472.779 235.634H443.669L464.169 199.554H451.049C451.049 201.85 450.584 203.9 449.655 205.704C448.725 207.454 447.55 208.957 446.129 210.214H445.309C445.363 209.504 445.418 208.793 445.473 208.082C445.527 207.481 445.582 206.825 445.637 206.114C445.691 205.349 445.719 204.666 445.719 204.064C445.719 203.135 445.691 202.315 445.637 201.604C445.582 200.839 445.527 200.183 445.473 199.636C445.418 199.035 445.363 198.461 445.309 197.914H472.779L452.279 233.994H467.039ZM495.713 198.324C494.565 198.324 493.445 198.652 492.351 199.308C491.313 199.91 490.356 200.921 489.481 202.342C488.661 203.764 487.978 205.65 487.431 208C486.939 210.351 486.693 213.276 486.693 216.774C486.693 220.273 486.939 223.198 487.431 225.548C487.978 227.899 488.634 229.812 489.399 231.288C490.219 232.71 491.094 233.721 492.023 234.322C493.007 234.924 493.964 235.224 494.893 235.224C496.205 235.224 497.353 234.842 498.337 234.076C499.376 233.311 500.251 232.464 500.961 231.534C501.781 230.496 502.492 229.266 503.093 227.844V203.244C502.547 202.315 501.918 201.495 501.207 200.784C500.606 200.183 499.841 199.636 498.911 199.144C498.037 198.598 496.971 198.324 495.713 198.324ZM509.653 233.584L514.573 234.814V235.634H503.093V230.714C502.492 231.862 501.727 232.901 500.797 233.83C500.032 234.596 499.048 235.279 497.845 235.88C496.697 236.536 495.303 236.864 493.663 236.864C491.914 236.864 490.165 236.427 488.415 235.552C486.721 234.623 485.19 233.311 483.823 231.616C482.511 229.867 481.418 227.762 480.543 225.302C479.723 222.788 479.313 219.945 479.313 216.774C479.313 213.604 479.723 210.788 480.543 208.328C481.418 205.814 482.566 203.709 483.987 202.014C485.409 200.265 487.021 198.953 488.825 198.078C490.629 197.149 492.515 196.684 494.483 196.684C496.014 196.684 497.326 196.903 498.419 197.34C499.513 197.778 500.415 198.242 501.125 198.734C501.945 199.336 502.601 200.019 503.093 200.784V180.284L498.173 179.054V178.234H509.653V233.584ZM531.383 233.584L536.303 234.814V235.634H519.903V234.814L524.823 233.584V199.964L519.903 198.734V197.914H531.383V207.754C532.094 205.732 532.941 203.9 533.925 202.26C534.8 200.839 535.866 199.554 537.123 198.406C538.381 197.258 539.884 196.684 541.633 196.684C542.235 196.684 542.809 196.739 543.355 196.848C543.902 196.903 544.394 196.985 544.831 197.094C545.323 197.258 545.761 197.395 546.143 197.504L543.683 203.654C543.355 203.49 543 203.299 542.617 203.08C542.289 202.916 541.879 202.78 541.387 202.67C540.95 202.506 540.485 202.424 539.993 202.424C538.572 202.424 537.315 202.807 536.221 203.572C535.128 204.338 534.226 205.185 533.515 206.114C532.641 207.208 531.93 208.438 531.383 209.804V233.584ZM565.051 197.914C564.122 197.914 563.165 198.242 562.181 198.898C561.252 199.5 560.377 200.538 559.557 202.014C558.792 203.436 558.136 205.349 557.589 207.754C557.097 210.16 556.851 213.166 556.851 216.774C556.851 220.382 557.097 223.389 557.589 225.794C558.136 228.2 558.792 230.14 559.557 231.616C560.377 233.038 561.252 234.076 562.181 234.732C563.165 235.334 564.122 235.634 565.051 235.634C565.981 235.634 566.91 235.334 567.839 234.732C568.823 234.076 569.698 233.038 570.463 231.616C571.283 230.14 571.939 228.2 572.431 225.794C572.978 223.389 573.251 220.382 573.251 216.774C573.251 213.166 572.978 210.16 572.431 207.754C571.939 205.349 571.283 203.436 570.463 202.014C569.698 200.538 568.823 199.5 567.839 198.898C566.91 198.242 565.981 197.914 565.051 197.914ZM565.051 196.684C567.074 196.684 569.015 197.149 570.873 198.078C572.787 198.953 574.454 200.265 575.875 202.014C577.351 203.709 578.499 205.814 579.319 208.328C580.194 210.788 580.631 213.604 580.631 216.774C580.631 219.945 580.194 222.788 579.319 225.302C578.499 227.762 577.351 229.867 575.875 231.616C574.454 233.311 572.787 234.623 570.873 235.552C569.015 236.427 567.074 236.864 565.051 236.864C562.974 236.864 561.006 236.427 559.147 235.552C557.289 234.623 555.621 233.311 554.145 231.616C552.724 229.867 551.576 227.762 550.701 225.302C549.881 222.788 549.471 219.945 549.471 216.774C549.471 213.604 549.881 210.788 550.701 208.328C551.576 205.814 552.724 203.709 554.145 202.014C555.621 200.265 557.289 198.953 559.147 198.078C561.006 197.149 562.974 196.684 565.051 196.684ZM601.128 236.864H599.898L587.598 199.964L582.678 198.734V197.914H599.078V198.734L594.568 199.964L603.096 225.63L612.198 196.684H613.428L623.924 225.63L631.468 200.784L626.138 198.734V197.914H638.438V198.734L633.108 200.784L622.038 236.864H620.808L610.23 207.836L601.128 236.864ZM645.02 233.584V199.964L640.1 198.734V197.914H651.58V233.584L656.5 234.814V235.634H640.1V234.814L645.02 233.584ZM651.99 188.484C651.99 189.523 651.553 190.48 650.678 191.354C649.858 192.174 648.929 192.584 647.89 192.584C646.852 192.584 645.895 192.174 645.02 191.354C644.2 190.48 643.79 189.523 643.79 188.484C643.79 187.446 644.2 186.516 645.02 185.696C645.895 184.822 646.852 184.384 647.89 184.384C648.929 184.384 649.858 184.822 650.678 185.696C651.553 186.516 651.99 187.446 651.99 188.484ZM683.131 215.544C678.375 215.544 674.849 216.61 672.553 218.742C670.312 220.82 669.191 223.717 669.191 227.434C669.191 229.894 669.793 231.808 670.995 233.174C672.198 234.541 673.51 235.224 674.931 235.224C676.243 235.224 677.391 234.842 678.375 234.076C679.414 233.311 680.289 232.464 680.999 231.534C681.819 230.496 682.53 229.266 683.131 227.844V215.544ZM676.981 197.914C675.341 197.914 673.975 198.488 672.881 199.636C671.788 200.73 671.241 202.206 671.241 204.064C671.241 204.502 671.241 204.884 671.241 205.212C671.296 205.54 671.351 205.841 671.405 206.114C671.46 206.388 671.542 206.661 671.651 206.934L665.091 208.574C664.982 208.41 664.9 208.192 664.845 207.918C664.791 207.645 664.736 207.344 664.681 207.016C664.681 206.688 664.681 206.251 664.681 205.704C664.681 204.556 664.955 203.463 665.501 202.424C666.048 201.331 666.841 200.374 667.879 199.554C668.973 198.68 670.257 197.996 671.733 197.504C673.264 196.958 675.013 196.684 676.981 196.684C680.917 196.684 684.006 197.805 686.247 200.046C688.543 202.288 689.691 205.267 689.691 208.984V233.584L694.611 234.814V235.634H683.131V230.714C682.53 231.862 681.765 232.901 680.835 233.83C680.07 234.596 679.086 235.279 677.883 235.88C676.735 236.536 675.341 236.864 673.701 236.864C669.765 236.864 666.786 235.935 664.763 234.076C662.795 232.218 661.811 229.73 661.811 226.614C661.811 225.084 662.221 223.553 663.041 222.022C663.916 220.492 665.201 219.125 666.895 217.922C668.645 216.72 670.859 215.763 673.537 215.052C676.216 214.287 679.414 213.904 683.131 213.904V208.984C683.131 204.884 682.503 202.014 681.245 200.374C680.043 198.734 678.621 197.914 676.981 197.914Z" fill="#CC8E1E"/>
</svg>
