<svg xmlns="http://www.w3.org/2000/svg" width="28" height="9" viewBox="0 0 28 9" fill="none">
    <path d="M20.0558 0.853017C19.436 0.627117 18.7808 0.513817 18.1211 0.518317C15.9878 0.518317 14.4811 1.59302 14.4705 3.13562C14.4571 4.26902 15.5411 4.90762 16.3611 5.28632C17.2025 5.67562 17.4838 5.92102 17.4811 6.26902C17.4758 6.79832 16.8091 7.03832 16.1891 7.03832C15.3371 7.03832 14.8718 6.91962 14.1558 6.62232L13.8905 6.49832L13.5878 8.27432C14.1065 8.49032 15.0411 8.67562 16.0065 8.69162C18.2745 8.69162 19.7571 7.62362 19.7745 5.98232C19.7931 5.07702 19.2065 4.39302 17.9718 3.82762C17.2211 3.46102 16.7558 3.21562 16.7558 2.84362C16.7558 2.51432 17.1545 2.16232 17.9878 2.16232C18.5424 2.14892 19.0936 2.25302 19.6051 2.46762L19.8051 2.55702L20.1078 0.841017L20.0558 0.853017ZM25.5918 0.662317H23.9251C23.4065 0.662317 23.0158 0.805018 22.7891 1.31962L19.5838 8.58102H21.8518L22.3051 7.39032L25.0731 7.39302C25.1385 7.67162 25.3385 8.58102 25.3385 8.58102H27.3385L25.5918 0.662317ZM11.4025 0.595618H13.5638L12.2118 8.51832H10.0531L11.4025 0.593017V0.595618ZM5.91585 4.96232L6.13985 6.06232L8.25185 0.662317H10.5411L7.13985 8.57032H4.85585L2.98918 1.87432C2.95895 1.76392 2.88795 1.66912 2.79052 1.60902C2.11772 1.26142 1.40485 0.997717 0.667847 0.823617L0.697177 0.657017H4.17585C4.64785 0.675617 5.02785 0.823617 5.15452 1.32762L5.91452 4.96632V4.96232H5.91585ZM22.9251 5.77032L23.7865 3.55432C23.7758 3.57832 23.9638 3.09702 24.0731 2.79962L24.2211 3.48362L24.7211 5.76902H22.9238V5.77032H22.9251Z" fill="#8099F7"/>
</svg>